<mxfile host="app.diagrams.net" modified="2024-04-23T19:43:44.928Z" agent="Mozilla/5.0 (Windows NT 10.0; Win64; x64) AppleWebKit/537.36 (KHTML, like Gecko) Chrome/122.0.0.0 Safari/537.36" etag="JCOVH-WXGx3B2UfwXYaH" version="24.2.8" type="github">
  <diagram name="Page-1" id="e7e014a7-5840-1c2e-5031-d8a46d1fe8dd">
    <mxGraphModel dx="1687" dy="878" grid="1" gridSize="10" guides="1" tooltips="1" connect="1" arrows="1" fold="1" page="1" pageScale="1" pageWidth="1169" pageHeight="826" background="none" math="0" shadow="0">
      <root>
        <mxCell id="0" />
        <mxCell id="1" parent="0" />
        <mxCell id="lvUb88YReWXjbiqxmQmM-54" value="" style="edgeStyle=orthogonalEdgeStyle;rounded=0;orthogonalLoop=1;jettySize=auto;html=1;" edge="1" parent="1" source="lvUb88YReWXjbiqxmQmM-45" target="lvUb88YReWXjbiqxmQmM-47">
          <mxGeometry relative="1" as="geometry" />
        </mxCell>
        <mxCell id="lvUb88YReWXjbiqxmQmM-45" value="Acessar Home" style="rounded=1;whiteSpace=wrap;html=1;" vertex="1" parent="1">
          <mxGeometry x="115" y="130" width="120" height="60" as="geometry" />
        </mxCell>
        <mxCell id="lvUb88YReWXjbiqxmQmM-50" value="" style="edgeStyle=orthogonalEdgeStyle;rounded=0;orthogonalLoop=1;jettySize=auto;html=1;" edge="1" parent="1" source="lvUb88YReWXjbiqxmQmM-47" target="lvUb88YReWXjbiqxmQmM-48">
          <mxGeometry relative="1" as="geometry" />
        </mxCell>
        <mxCell id="lvUb88YReWXjbiqxmQmM-52" value="N" style="edgeLabel;html=1;align=center;verticalAlign=middle;resizable=0;points=[];" vertex="1" connectable="0" parent="lvUb88YReWXjbiqxmQmM-50">
          <mxGeometry x="-0.1273" y="-2" relative="1" as="geometry">
            <mxPoint as="offset" />
          </mxGeometry>
        </mxCell>
        <mxCell id="lvUb88YReWXjbiqxmQmM-51" value="" style="edgeStyle=orthogonalEdgeStyle;rounded=0;orthogonalLoop=1;jettySize=auto;html=1;" edge="1" parent="1" source="lvUb88YReWXjbiqxmQmM-47" target="lvUb88YReWXjbiqxmQmM-49">
          <mxGeometry relative="1" as="geometry" />
        </mxCell>
        <mxCell id="lvUb88YReWXjbiqxmQmM-53" value="S" style="edgeLabel;html=1;align=center;verticalAlign=middle;resizable=0;points=[];" vertex="1" connectable="0" parent="lvUb88YReWXjbiqxmQmM-51">
          <mxGeometry x="0.1333" y="-1" relative="1" as="geometry">
            <mxPoint as="offset" />
          </mxGeometry>
        </mxCell>
        <mxCell id="lvUb88YReWXjbiqxmQmM-47" value="Possui cadastro?" style="rhombus;whiteSpace=wrap;html=1;" vertex="1" parent="1">
          <mxGeometry x="135" y="220" width="80" height="80" as="geometry" />
        </mxCell>
        <mxCell id="lvUb88YReWXjbiqxmQmM-56" value="" style="edgeStyle=orthogonalEdgeStyle;rounded=0;orthogonalLoop=1;jettySize=auto;html=1;" edge="1" parent="1" source="lvUb88YReWXjbiqxmQmM-48" target="lvUb88YReWXjbiqxmQmM-55">
          <mxGeometry relative="1" as="geometry" />
        </mxCell>
        <mxCell id="lvUb88YReWXjbiqxmQmM-48" value="Clicar em criar conta" style="rounded=1;whiteSpace=wrap;html=1;" vertex="1" parent="1">
          <mxGeometry x="270" y="260" width="120" height="60" as="geometry" />
        </mxCell>
        <mxCell id="lvUb88YReWXjbiqxmQmM-66" value="" style="edgeStyle=orthogonalEdgeStyle;rounded=0;orthogonalLoop=1;jettySize=auto;html=1;" edge="1" parent="1" source="lvUb88YReWXjbiqxmQmM-49" target="lvUb88YReWXjbiqxmQmM-65">
          <mxGeometry relative="1" as="geometry" />
        </mxCell>
        <mxCell id="lvUb88YReWXjbiqxmQmM-49" value="Clicar em fazer login" style="rounded=1;whiteSpace=wrap;html=1;" vertex="1" parent="1">
          <mxGeometry x="115" y="340" width="120" height="60" as="geometry" />
        </mxCell>
        <mxCell id="lvUb88YReWXjbiqxmQmM-58" value="" style="edgeStyle=orthogonalEdgeStyle;rounded=0;orthogonalLoop=1;jettySize=auto;html=1;" edge="1" parent="1" source="lvUb88YReWXjbiqxmQmM-55" target="lvUb88YReWXjbiqxmQmM-57">
          <mxGeometry relative="1" as="geometry" />
        </mxCell>
        <mxCell id="lvUb88YReWXjbiqxmQmM-55" value="Preencher cadastro" style="whiteSpace=wrap;html=1;rounded=1;" vertex="1" parent="1">
          <mxGeometry x="420" y="260" width="120" height="60" as="geometry" />
        </mxCell>
        <mxCell id="lvUb88YReWXjbiqxmQmM-60" value="" style="edgeStyle=orthogonalEdgeStyle;rounded=0;orthogonalLoop=1;jettySize=auto;html=1;" edge="1" parent="1" source="lvUb88YReWXjbiqxmQmM-57" target="lvUb88YReWXjbiqxmQmM-59">
          <mxGeometry relative="1" as="geometry" />
        </mxCell>
        <mxCell id="lvUb88YReWXjbiqxmQmM-57" value="Definir login e senha" style="whiteSpace=wrap;html=1;rounded=1;" vertex="1" parent="1">
          <mxGeometry x="570" y="260" width="120" height="60" as="geometry" />
        </mxCell>
        <mxCell id="lvUb88YReWXjbiqxmQmM-62" value="" style="edgeStyle=orthogonalEdgeStyle;rounded=0;orthogonalLoop=1;jettySize=auto;html=1;" edge="1" parent="1" source="lvUb88YReWXjbiqxmQmM-59" target="lvUb88YReWXjbiqxmQmM-61">
          <mxGeometry relative="1" as="geometry" />
        </mxCell>
        <mxCell id="lvUb88YReWXjbiqxmQmM-59" value="Acessar a área do usuário" style="whiteSpace=wrap;html=1;rounded=1;" vertex="1" parent="1">
          <mxGeometry x="720" y="260" width="120" height="60" as="geometry" />
        </mxCell>
        <mxCell id="lvUb88YReWXjbiqxmQmM-61" value="" style="ellipse;html=1;shape=endState;fillColor=#000000;strokeColor=#ff0000;" vertex="1" parent="1">
          <mxGeometry x="890" y="275" width="30" height="30" as="geometry" />
        </mxCell>
        <mxCell id="lvUb88YReWXjbiqxmQmM-63" value="" style="ellipse;html=1;shape=startState;fillColor=#000000;strokeColor=#ff0000;" vertex="1" parent="1">
          <mxGeometry x="160" y="80" width="30" height="30" as="geometry" />
        </mxCell>
        <mxCell id="lvUb88YReWXjbiqxmQmM-64" value="" style="edgeStyle=orthogonalEdgeStyle;html=1;verticalAlign=bottom;endArrow=open;endSize=8;strokeColor=#ff0000;rounded=0;" edge="1" source="lvUb88YReWXjbiqxmQmM-63" parent="1">
          <mxGeometry relative="1" as="geometry">
            <mxPoint x="175" y="130" as="targetPoint" />
            <Array as="points">
              <mxPoint x="175" y="130" />
            </Array>
          </mxGeometry>
        </mxCell>
        <mxCell id="lvUb88YReWXjbiqxmQmM-70" value="" style="edgeStyle=orthogonalEdgeStyle;rounded=0;orthogonalLoop=1;jettySize=auto;html=1;" edge="1" parent="1" source="lvUb88YReWXjbiqxmQmM-65" target="lvUb88YReWXjbiqxmQmM-69">
          <mxGeometry relative="1" as="geometry" />
        </mxCell>
        <mxCell id="lvUb88YReWXjbiqxmQmM-71" value="N" style="edgeLabel;html=1;align=center;verticalAlign=middle;resizable=0;points=[];" vertex="1" connectable="0" parent="lvUb88YReWXjbiqxmQmM-70">
          <mxGeometry x="-0.3091" relative="1" as="geometry">
            <mxPoint as="offset" />
          </mxGeometry>
        </mxCell>
        <mxCell id="lvUb88YReWXjbiqxmQmM-73" style="edgeStyle=orthogonalEdgeStyle;rounded=0;orthogonalLoop=1;jettySize=auto;html=1;" edge="1" parent="1" source="lvUb88YReWXjbiqxmQmM-65" target="lvUb88YReWXjbiqxmQmM-72">
          <mxGeometry relative="1" as="geometry" />
        </mxCell>
        <mxCell id="lvUb88YReWXjbiqxmQmM-74" value="S" style="edgeLabel;html=1;align=center;verticalAlign=middle;resizable=0;points=[];" vertex="1" connectable="0" parent="lvUb88YReWXjbiqxmQmM-73">
          <mxGeometry x="-0.0286" y="-4" relative="1" as="geometry">
            <mxPoint as="offset" />
          </mxGeometry>
        </mxCell>
        <mxCell id="lvUb88YReWXjbiqxmQmM-65" value="Esqueceu login e senha" style="rhombus;whiteSpace=wrap;html=1;" vertex="1" parent="1">
          <mxGeometry x="100" y="440" width="150" height="80" as="geometry" />
        </mxCell>
        <mxCell id="lvUb88YReWXjbiqxmQmM-75" style="edgeStyle=orthogonalEdgeStyle;rounded=0;orthogonalLoop=1;jettySize=auto;html=1;entryX=0.5;entryY=1;entryDx=0;entryDy=0;" edge="1" parent="1" source="lvUb88YReWXjbiqxmQmM-69" target="lvUb88YReWXjbiqxmQmM-59">
          <mxGeometry relative="1" as="geometry" />
        </mxCell>
        <mxCell id="lvUb88YReWXjbiqxmQmM-69" value="Preencher login e senha" style="rounded=1;whiteSpace=wrap;html=1;" vertex="1" parent="1">
          <mxGeometry x="300" y="450" width="120" height="60" as="geometry" />
        </mxCell>
        <mxCell id="lvUb88YReWXjbiqxmQmM-77" value="" style="edgeStyle=orthogonalEdgeStyle;rounded=0;orthogonalLoop=1;jettySize=auto;html=1;" edge="1" parent="1" source="lvUb88YReWXjbiqxmQmM-72" target="lvUb88YReWXjbiqxmQmM-76">
          <mxGeometry relative="1" as="geometry" />
        </mxCell>
        <mxCell id="lvUb88YReWXjbiqxmQmM-72" value="Clicar em recuperar a senha" style="rounded=1;whiteSpace=wrap;html=1;" vertex="1" parent="1">
          <mxGeometry x="115" y="570" width="120" height="60" as="geometry" />
        </mxCell>
        <mxCell id="lvUb88YReWXjbiqxmQmM-76" value="Digitar email de recuperação" style="whiteSpace=wrap;html=1;rounded=1;" vertex="1" parent="1">
          <mxGeometry x="115" y="660" width="120" height="60" as="geometry" />
        </mxCell>
        <mxCell id="lvUb88YReWXjbiqxmQmM-85" style="edgeStyle=orthogonalEdgeStyle;rounded=0;orthogonalLoop=1;jettySize=auto;html=1;" edge="1" parent="1" source="lvUb88YReWXjbiqxmQmM-81" target="lvUb88YReWXjbiqxmQmM-83">
          <mxGeometry relative="1" as="geometry" />
        </mxCell>
        <mxCell id="lvUb88YReWXjbiqxmQmM-86" style="edgeStyle=orthogonalEdgeStyle;rounded=0;orthogonalLoop=1;jettySize=auto;html=1;" edge="1" parent="1" source="lvUb88YReWXjbiqxmQmM-81" target="lvUb88YReWXjbiqxmQmM-84">
          <mxGeometry relative="1" as="geometry" />
        </mxCell>
        <mxCell id="lvUb88YReWXjbiqxmQmM-81" value="" style="line;strokeWidth=6;fillColor=none;align=left;verticalAlign=middle;spacingTop=-1;spacingLeft=3;spacingRight=3;rotatable=0;labelPosition=right;points=[];portConstraint=eastwest;strokeColor=inherit;" vertex="1" parent="1">
          <mxGeometry x="100" y="790" width="150" height="8" as="geometry" />
        </mxCell>
        <mxCell id="lvUb88YReWXjbiqxmQmM-82" style="edgeStyle=orthogonalEdgeStyle;rounded=0;orthogonalLoop=1;jettySize=auto;html=1;entryX=0.467;entryY=0;entryDx=0;entryDy=0;entryPerimeter=0;" edge="1" parent="1" source="lvUb88YReWXjbiqxmQmM-76" target="lvUb88YReWXjbiqxmQmM-81">
          <mxGeometry relative="1" as="geometry">
            <Array as="points">
              <mxPoint x="170" y="780" />
              <mxPoint x="170" y="780" />
            </Array>
          </mxGeometry>
        </mxCell>
        <mxCell id="lvUb88YReWXjbiqxmQmM-83" value="Definir login e senha" style="rounded=1;whiteSpace=wrap;html=1;" vertex="1" parent="1">
          <mxGeometry x="15" y="840" width="120" height="60" as="geometry" />
        </mxCell>
        <mxCell id="lvUb88YReWXjbiqxmQmM-84" value="Confirmar a palavra secreta" style="rounded=1;whiteSpace=wrap;html=1;" vertex="1" parent="1">
          <mxGeometry x="215" y="840" width="120" height="60" as="geometry" />
        </mxCell>
        <mxCell id="lvUb88YReWXjbiqxmQmM-92" style="edgeStyle=orthogonalEdgeStyle;rounded=0;orthogonalLoop=1;jettySize=auto;html=1;entryX=0.5;entryY=1;entryDx=0;entryDy=0;" edge="1" parent="1" source="lvUb88YReWXjbiqxmQmM-89" target="lvUb88YReWXjbiqxmQmM-69">
          <mxGeometry relative="1" as="geometry">
            <mxPoint x="360" y="520" as="targetPoint" />
          </mxGeometry>
        </mxCell>
        <mxCell id="lvUb88YReWXjbiqxmQmM-89" value="" style="line;strokeWidth=6;fillColor=none;align=left;verticalAlign=middle;spacingTop=-1;spacingLeft=3;spacingRight=3;rotatable=0;labelPosition=right;points=[];portConstraint=eastwest;strokeColor=inherit;" vertex="1" parent="1">
          <mxGeometry x="100" y="1040" width="150" height="8" as="geometry" />
        </mxCell>
        <mxCell id="lvUb88YReWXjbiqxmQmM-90" style="edgeStyle=orthogonalEdgeStyle;rounded=0;orthogonalLoop=1;jettySize=auto;html=1;entryX=0.733;entryY=0;entryDx=0;entryDy=0;entryPerimeter=0;" edge="1" parent="1" source="lvUb88YReWXjbiqxmQmM-84" target="lvUb88YReWXjbiqxmQmM-89">
          <mxGeometry relative="1" as="geometry" />
        </mxCell>
        <mxCell id="lvUb88YReWXjbiqxmQmM-91" style="edgeStyle=orthogonalEdgeStyle;rounded=0;orthogonalLoop=1;jettySize=auto;html=1;entryX=0.353;entryY=0.125;entryDx=0;entryDy=0;entryPerimeter=0;" edge="1" parent="1" source="lvUb88YReWXjbiqxmQmM-83" target="lvUb88YReWXjbiqxmQmM-89">
          <mxGeometry relative="1" as="geometry" />
        </mxCell>
      </root>
    </mxGraphModel>
  </diagram>
</mxfile>
